<svg width="56" height="37" viewBox="0 0 56 37" fill="none" xmlns="http://www.w3.org/2000/svg">
<path d="M16.0909 30.7728C16.0349 31.4237 15.6473 31.8035 15.3214 32.007C14.2907 32.5169 13.1351 32.809 11.9092 32.809C7.62194 32.809 4.14724 29.3271 4.14724 25.0318C4.14724 20.7365 7.62194 17.2547 11.9092 17.2547C12.6456 17.2547 13.3576 17.3618 14.033 17.5539V13.2931C13.3425 13.1694 12.6334 13.0996 11.9092 13.0996C5.33227 13.0996 0 18.4414 0 25.0318C0 31.6222 5.33156 36.964 11.9092 36.964C14.8742 36.964 17.6462 35.7924 19.3057 34.3309C19.4091 34.2172 19.5239 34.1122 19.6703 33.8756C19.6703 33.8756 19.7464 33.7548 19.7479 33.754C19.7952 33.6764 19.8964 33.5016 19.9065 33.4786C19.9862 33.3045 20.0572 33.1103 20.1132 32.8859C20.1132 32.8802 20.1154 32.8744 20.1168 32.8686C20.1225 32.8456 20.1247 32.8183 20.1304 32.796C20.1383 32.7536 20.1455 32.7083 20.1541 32.6665C20.1642 32.5982 20.1742 32.5299 20.1835 32.4572C20.1907 32.3968 20.2029 32.2163 20.2087 32.1537V27.775L16.0916 21.824V30.7728H16.0909Z" fill="#008FD3"/>
<path d="M39.9077 13.8467C39.0758 14.1739 37.1185 15.114 35.5817 17.1854C35.5774 17.1818 35.5724 17.1775 35.5695 17.1753L27.9993 28.0927L20.4297 17.1753C20.4254 17.1775 20.4218 17.1818 20.4175 17.1854C18.8808 15.114 16.9234 14.1747 16.0916 13.8467V18.2074L27.9993 35.3836L39.9084 18.2074V13.8467H39.9077Z" fill="#008FD3"/>
<path d="M44.0902 13.0996C43.3638 13.0996 42.6553 13.1687 41.9663 13.2938V17.5539C42.6417 17.3618 43.3537 17.2547 44.0902 17.2547C48.3767 17.2547 51.8514 20.7365 51.8514 25.0325C51.8514 29.3278 48.3767 32.8082 44.0902 32.8082C42.8628 32.8082 41.7072 32.5162 40.6765 32.0077C40.352 31.8027 39.9637 31.4244 39.9077 30.7721V21.8233L35.7906 27.7743V32.1537C35.7964 32.2163 35.8079 32.3968 35.8158 32.4587C35.8237 32.5306 35.8337 32.5989 35.8452 32.6665C35.8531 32.709 35.8603 32.7543 35.8689 32.796C35.8732 32.819 35.8768 32.8464 35.8825 32.8686C35.884 32.8744 35.8847 32.8802 35.8861 32.8859C35.9407 33.1103 36.0124 33.3045 36.0907 33.4786C36.1022 33.5016 36.2041 33.6764 36.2522 33.754C36.2522 33.7555 36.3297 33.8756 36.3297 33.8756C36.4747 34.1122 36.591 34.2165 36.6929 34.3309C38.3524 35.7924 41.1244 36.9654 44.0909 36.9654C50.667 36.9654 56 31.6229 56 25.0332C55.9993 18.4414 50.6663 13.0996 44.0902 13.0996Z" fill="#008FD3"/>
<path d="M20.4326 13.5843C20.3171 13.0521 20.2546 12.5004 20.2546 11.9336C20.2546 7.64768 23.7222 4.17375 28 4.17375C32.2779 4.17375 35.7454 7.64768 35.7454 11.9336C35.7454 12.5004 35.683 13.0521 35.5681 13.5843C36.8429 12.6514 38.3107 11.9682 39.8999 11.6013C39.724 5.16415 34.4657 0 28 0C21.5344 0 16.2761 5.16415 16.1002 11.6013C17.6886 11.9682 19.1565 12.6514 20.4326 13.5843Z" fill="#008FD3"/>
</svg>
