<svg xmlns="http://www.w3.org/2000/svg" viewBox="0 0 70 70"><path fill="#22c55e" d="M70 52.2v2.4a15.6 15.6 0 0 1-.3 2.8 20.5 20.5 0 0 1-.5 2.3q-.8 2.7-2.7 5a14 14 0 0 1-3.2 2.9 17.2 17.2 0 0 1-1.5.9q-3 1.5-7.2 1.5H6.4a6.7 6.7 0 0 1-2-.2 6.1 6.1 0 0 1-.5-.3 6.2 6.2 0 0 1-2-1.3 6.2 6.2 0 0 1-1.4-2A6.4 6.4 0 0 1 0 64a7.5 7.5 0 0 1 0-.4V6.4a6.4 6.4 0 0 1 .5-2.5Q1 2.7 1.8 2a6 6 0 0 1 2-1.4A6.4 6.4 0 0 1 6.2 0a7.5 7.5 0 0 1 .3 0h42.5a15.2 15.2 0 0 1 2.7.3 20 20 0 0 1 2.3.5q2.7.9 5 2.7a14 14 0 0 1 3 3.4 17 17 0 0 1 .9 1.4q1.5 2.9 1.5 7.1v2.4a23.2 23.2 0 0 1-.3 4 30.7 30.7 0 0 1-.8 3.3 23.9 23.9 0 0 1-3.5 7.1 26.8 26.8 0 0 1-.1.2 22.4 22.4 0 0 1 4 3.2 20.1 20.1 0 0 1 3 3.8 22.6 22.6 0 0 1 .3.5 21.5 21.5 0 0 1 1.7 3.6 26 26 0 0 1 .5 2 23.8 23.8 0 0 1 .7 3.9 30 30 0 0 1 .2 2.8Zm-12.7 2.3v-2.3a13.6 13.6 0 0 0-.2-2.5 10.7 10.7 0 0 0-.6-2 10 10 0 0 0-1.8-2.9 9.4 9.4 0 0 0-.4-.5 9.4 9.4 0 0 0-3.1-2 11 11 0 0 0-.3-.1 11.6 11.6 0 0 0-2.7-.7 14.7 14.7 0 0 0-1.8 0H17.8V28.5h22.9a14.1 14.1 0 0 0 2.5-.2 11.2 11.2 0 0 0 2-.5 9.7 9.7 0 0 0 2.7-1.6 9 9 0 0 0 .7-.6 9.5 9.5 0 0 0 2.1-3.3 11 11 0 0 0 0-.1 11.3 11.3 0 0 0 .7-2.6 14.6 14.6 0 0 0 .1-1.9v-2.4q0-2.7-2.6-2.7H12.7v44.6h41.9a6 6 0 0 0 .3 0h.5a2 2 0 0 0 .7-.2 2 2 0 0 0 .2-.1 1.5 1.5 0 0 0 .3-.3l.4-.5.3-1a6 6 0 0 0 0-.7Z"/></svg>