<svg xmlns="http://www.w3.org/2000/svg" viewBox="0 0 24 24"><path d="M4.2 4.6a4.2 4.2 0 0 0-2.9 1.1C-.4 7.3 0 9.7.1 10.1c0 .4.3 1.6 1.2 2.7C3 15 6.8 15 6.8 15S7.3 16 8 17c1 1.3 2 2.3 2.9 2.4H18s.4 0 1-.4c.6-.3 1-.9 1-.9s.6-.5 1.3-1.7l.5-1s2.1-4.6 2.1-9c0-1.2-.4-1.5-.4-1.5l-.4-.2s-4.5.3-6.8.3h-1.5v4.5l-.6-.3V5h-3.5l-6-.4h-.6zm.4 1.8s.3 2.3.7 3.6c.2 1.1 1 3 1 3l-1.7-.3c-1-.4-1.4-.8-1.4-.8s-.8-.5-1.1-1.5c-.7-1.7 0-2.7 0-2.7s.2-.9 1.4-1.1c.4-.2.9-.2 1-.2zM12.9 9l.5.1.9.4-.6 1.1a.7.7 0 0 0-.6.4.7.7 0 0 0 .1.7l-1 2a.7.7 0 0 0-.6.5.7.7 0 0 0 .3.7.7.7 0 0 0 1-.2.7.7 0 0 0-.2-.8l1-2a.7.7 0 0 0 .2 0 .7.7 0 0 0 .3 0 8.8 8.8 0 0 1 1 .4.8.8 0 0 1 .3.3l-.1.6c0 .3-.7 1.5-.7 1.5a.7.7 0 0 0-.7.5.7.7 0 1 0 1.2-.2l.2-.5.5-1.1c0-.1.2-.4.1-.8a1 1 0 0 0-.5-.7l-1-.6-.1-.2a.7.7 0 0 0-.2-.3l.5-1 3 1.4s.4.2.5.6v.6L16 16.8s-.2.5-.7.5a1 1 0 0 1-.4 0h-.2L10.4 15s-.4-.2-.5-.6l.1-.7 2-4.2s.3-.4.5-.5A.9.9 0 0 1 13 9z"/></svg>